<svg width="100%" height="200" viewBox="0 0 800 200" xmlns="http://www.w3.org/2000/svg">
    <rect width="100%" height="100%" fill="#e6f0ff" />
    <text x="50%" y="40%" alignment-baseline="middle" text-anchor="middle" font-size="20" fill="#39a6e0">
        Your Future Starts Here:
    </text>
    <text x="50%" y="60%" alignment-baseline="middle" text-anchor="middle" font-size="20" fill="#39a6e0">
        Embrace Knowledge, Ignite Passion.
    </text>
    <circle cx="100" cy="100" r="40" fill="#39a6e0" />
    <circle cx="700" cy="100" r="40" fill="#3b5999" />
    
    <!-- Tutor App Icons -->
    <svg x="80" y="80" width="30" height="30" xmlns="http://www.w3.org/2000/svg" fill="#ffffff">
        <path d="M15 0C6.716 0 0 6.716 0 15c0 6.204 3.73 11.59 9 13.655v-3.16C4.755 24.152 1 19.678 1 15 1 8.029 6.029 3 12 3s11 5.029 11 12c0 4.678-3.755 9.152-8 10.495v3.16C21.27 26.59 25 21.204 25 15c0-8.284-6.716-15-15-15z" />
    </svg>

    <svg x="680" y="80" width="30" height="30" xmlns="http://www.w3.org/2000/svg" fill="#ffffff">
        <path d="M15 0C6.716 0 0 6.716 0 15c0 6.204 3.73 11.59 9 13.655v-3.16C4.755 24.152 1 19.678 1 15 1 8.029 6.029 3 12 3s11 5.029 11 12c0 4.678-3.755 9.152-8 10.495v3.16C21.27 26.59 25 21.204 25 15c0-8.284-6.716-15-15-15z" />
    </svg>
</svg>
