<svg xmlns="http://www.w3.org/2000/svg" viewBox="0 0 24 24" width="24" height="24" fill="white">
  <!-- Outer Gear Shape -->
  <circle cx="12" cy="12" r="3" stroke="white" stroke-width="2" fill="none"/>
  <path d="M19.4 13c.1-.3.1-.7.1-1s0-.7-.1-1l1.9-1.5c.2-.2.3-.5.1-.8l-1.8-3.1c-.1-.2-.4-.3-.7-.2l-2.2.9c-.5-.4-1-.7-1.5-.9l-.3-2.4c0-.3-.3-.5-.6-.5h-3.6c-.3 0-.5.2-.6.5l-.3 2.4c-.5.2-1 .5-1.5.9l-2.2-.9c-.2-.1-.6 0-.7.2L2.6 8.7c-.2.2-.1.6.1.8L4.6 11c-.1.3-.1.7-.1 1s0 .7.1 1l-1.9 1.5c-.2.2-.3.5-.1.8l1.8 3.1c.1.2.4.3.7.2l2.2-.9c.5.4 1 .7 1.5.9l.3 2.4c0 .3.3.5.6.5h3.6c.3 0 .5-.2.6-.5l.3-2.4c.5-.2 1-.5 1.5-.9l2.2.9c.2.1.6 0 .7-.2l1.8-3.1c.2-.2.1-.6-.1-.8L19.4 13z" stroke="white" stroke-width="2" fill="none"/>
</svg>
